<?xml version="1.0" encoding="utf-8"?>
<svg  version="1.1" id="Ebene_1" width="567" height="539" viewBox="0 0 567 539"
	 overflow="visible" enable-background="new 0 0 567 539" xml:space="preserve">
<path fill-rule="evenodd" clip-rule="evenodd" fill="#fff" d="M191.284,332.842L191.284,332.842c-0.06-0.48-0.6-0.721-0.91-1.021
	c-2.57-2.52-4.72-5.36-6.01-9.07c-1.26-3.64-0.97-7.77,0.23-10.89c0.39-1.02,1.03-1.87,1.24-2.83
	c-18.239,4.97-31.99,14.389-53.51,15.87c-7.01,0.479-14.4-0.06-21.21-1.471c-6.28-1.31-12-3.3-17.68-5.439
	c-5.52-2.08-10.83-4.649-16.45-6.7c-11.16-4.05-24.73-6.489-37.87-8.5c-0.13,0.021-0.12,0.181-0.11,0.34c0,9.26,0,18.521,0,27.779
	c14.61,1.461,28.08,3.241,39.46,7.941c11.47,4.729,22.66,9.359,36.4,11c15.53,1.84,30.08-0.331,41.95-4.09
	C168.764,341.991,179.064,336.201,191.284,332.842z"/>
<path fill-rule="evenodd" clip-rule="evenodd" fill="#fff" d="M323.834,341.802L323.834,341.802c-0.7-1.45-1.85-2.891-2.61-4.771
	c-2.189-5.391-2.63-13.76-0.68-19.95c-0.08,0-0.149,0-0.229,0c-8.92,2.589-19.21,6.12-30.95,6.12c-10.43,0-20.25-1.5-28.46-3.63
	c-1.19-0.3-2.43-0.66-3.63-0.79c0.33,2.4,0.55,5.45,0.68,8.5c0.13,3.12,0.41,6.42-0.12,8.85c-0.64,2.971-2.81,4.23-4.08,6.23
	c5.07,1.79,9.88,4.4,15.54,6.01c11.54,3.3,27.69,1.92,38.32-1.13C313.364,345.592,318.724,343.831,323.834,341.802z"/>
<path fill-rule="evenodd" clip-rule="evenodd" fill="#fff" d="M527.814,288.621L527.814,288.621c0-10.399,0-20.791,0-31.18
	c-28.431,3.84-45.021,20.14-75.181,21.88c3.471-14.661,7.36-27.85,8.851-44.111c1.5-16.489,0.71-33.879-1.931-49.43
	c-3.479-20.429-10.43-38.419-19.05-53.629c-1.21-2.14-2.35-4.36-3.63-6.35c-1.3-2.04-2.66-4.03-3.97-6.01
	c-1.74-2.66-3.74-5.14-5.67-7.6c-6.721-8.61-14.2-16.86-22.11-24.15c-1.16-1.08-2.229-2.28-3.4-3.29c-1.159-1-2.5-1.86-3.739-2.83
	c-1.23-0.98-2.48-1.93-3.74-2.84c-18.14-13.16-37.22-23.98-62.14-30.61c-13.49-3.6-30.48-5.92-48.07-5.11
	c-8.32,0.39-16.11,0.98-23.59,2.16c-7.48,1.18-14.51,2.75-21.09,4.76c-6.36,1.95-12.57,4.53-18.48,7.26
	c-8.91,4.11-17.47,8.46-25.62,13.04c-2.75,1.54-5.36,3.26-7.94,4.99c-1.32,0.87-2.68,1.64-3.97,2.49c-1.26,0.83-2.45,1.89-3.63,2.84
	c-12.02,9.63-22.4,20.44-31.63,32.88c-14.41,19.4-25.76,43.48-31.07,72.11c-0.68,3.68-1.15,7.47-1.59,11.229
	c-0.69,5.9-1.36,12.101-0.91,18.25c0.15,2.021,0.23,4.08,0.35,6.12c0.23,3.95,0.73,7.86,1.13,11.8c0.79,7.821,1.84,15.431,2.95,22.9
	c0.82,5.58,2.01,11.01,3.17,16.21c0.38,1.729,0.84,3.47,1.02,5.22c-2.05-0.189-3.97-0.35-5.89-0.711
	c-2.11-0.389-3.67-0.77-5.45-1.249c-10.67-2.87-19.58-7.041-28.91-11.08c-12.53-5.42-26.53-8.51-43.88-9.411
	c0,10.091,0,20.181,0,30.27c7.97,0.621,15.53,1.23,22.56,2.501c7.08,1.27,13.5,3.16,19.51,5.67c12.11,5.05,24.14,9.64,39.57,10.66
	c17.12,1.12,30.97-2.18,42.97-6.811c6.06-2.33,11.79-4.869,17.8-7.26c5.98-2.37,12.31-4.72,19.62-5.55
	c1.04-1.45,1.66-3.331,2.61-4.88c-1.06-3.18-2.99-6.47-2.72-10.43c0.21-3.15,1.96-6.101,2.94-8.5c0.14-0.341,0.6-0.931,0.23-1.021
	c-2.35,0.03-4.54,0.22-6.69,0.45c-1.12-3.99-2.83-7.59-3.97-11.45c-0.58-1.979-1.13-3.979-1.7-6.009
	c-0.59-2.141-0.84-4.26-1.13-6.691c-1.12-9.22-2.2-18.99-0.91-28.689c3.04-22.9,11.6-40.25,23.36-54.08
	c2.35-2.77,4.92-5.49,7.59-7.94c10.83-9.91,23.29-18.04,39.24-22.68c8.05-2.34,17.17-4.08,26.98-4.08c10.229,0,19.34,1.1,27.55,3.4
	c7.96,2.24,15.11,5.43,21.77,9.19c19.921,11.23,34.721,27.4,43.54,49.43c3.07,7.66,4.86,15.539,5.79,25.289
	c1.4,14.65-0.05,30.28-2.159,43.201c-0.71,4.379-1.221,8.81-2.94,12.589c-1.79-0.149-3.18-0.689-4.99-0.8
	c0.86,3.53,3.36,5.5,3.851,9.41c0.399,3.179-0.54,6.081-1.36,8.51c-0.28,0.82-0.94,1.86-0.91,2.49c0.03,0.37,0.44,0.68,0.68,1.13
	c0.681,1.23,1.32,2.62,1.82,3.63c13.141,1.67,23.47,7.24,34.58,11.681c11.29,4.52,23.311,7.6,38.44,7.6
	c15.64,0,27.54-3.1,38.89-7.14c5.58-1.99,11.04-4.4,16.89-6.131C514.304,290.361,520.574,289.151,527.814,288.621z"/>
<path fill-rule="evenodd" clip-rule="evenodd" fill="#fff" d="M527.814,382.052L527.814,382.052c0-10.021,0-20.03,0-30.051
	c-0.12,0-0.23,0-0.341,0c-2.779,0.141-8.05,1.19-8.05,1.19s-5.16,1.199-7.6,1.99c-4.74,1.52-9.25,3.3-13.72,5.1
	c-17.49,7.021-35.591,16.41-60.551,13.6c-11.239-1.26-20.17-4.77-29.37-8.27c-9.47-3.61-18.569-6.68-28.909-8.73
	c-10.891-2.159-23.811-2.05-34.011,0.45c-4.909,1.2-9.59,2.94-14.399,4.42c-4.83,1.48-9.7,2.86-14.74,4.08
	c-10.18,2.46-21.09,4.391-33.34,4.199c-2.87-0.039-5.82-0.449-8.62-0.799c-14.04-1.72-26.14-5.34-37.87-9.18
	c-4.85-1.591-9.59-3.19-14.63-4.19c-11.37-2.27-23.65-1.26-33.67,1.24c-9.83,2.46-19.14,6.02-28.01,9.64
	c-9.21,3.759-18.6,6.351-30.61,7.03c-18.21,1.04-33.83-4.211-46.04-10.2c-4.19-2.06-8.24-4.479-12.7-6.131
	c-9.27-3.429-20.26-5.029-31.52-6.229c-0.13,0.021-0.12,0.181-0.11,0.341c0,8.579,0,17.159,0,25.739
	c10.46,1.88,20.521,4.249,30.05,7.59c9.36,3.28,18.19,7.471,27.44,10.32c10.1,3.11,21.16,4.62,33.33,4.2
	c11.93-0.42,21.76-3.25,31.07-6.69c8.88-3.29,17.79-7.63,27.21-10.439c4.93-1.46,10.31-2.601,16.22-2.601
	c5.93,0,11.57,0.61,17,1.921c9.87,2.39,18.49,6.789,27.9,9.869c9.5,3.109,19.66,5.15,31.97,5.78c12.53,0.64,23.48-1.35,33.56-3.851
	c5-1.239,9.83-2.68,14.521-4.31c4.699-1.64,9.22-3.529,13.939-4.989c9.9-3.051,21.811-4.49,33.34-2.61
	c5.301,0.87,10.051,2.42,14.74,4.08c4.58,1.62,9.061,3.41,13.72,5.22c11.21,4.34,23.17,8.359,37.761,9.41
	c2.979,0.21,6.029,0.08,9.18,0.229c5.97,0.281,12.41,0.291,18.26-0.459c10.67-1.369,18.47-6.31,27.55-10.199
	C506.864,385.861,516.334,382.701,527.814,382.052z"/>
<path fill-rule="evenodd" clip-rule="evenodd" fill="#fff" d="M394.804,312.771c3.12,9.119-2.68,17.22-6.8,22
	c-0.22,0.25-0.85,0.7-0.45,0.79c21.311,7.79,40.091,18.079,69.841,16.55c13.869-0.71,24.789-3.94,35.38-7.93
	c5.13-1.94,10.25-4.311,15.87-5.79c5.85-1.53,11.979-2.351,19.109-2.601c0.061-8.819,0.21-19.77,0.17-28.92
	c0-0.92-0.02-1.479-0.02-1.479s-0.931,0.08-1.23,0.12c-6.27,0.88-12.069,1.79-17.569,3.18c-5.41,1.37-10.381,3.39-15.311,5.439
	c-9.75,4.051-19.25,8.39-30.95,10.66c-12.89,2.49-26.13,1.431-37.189-1.479c-9.37-2.45-17.99-6.58-26.88-9.521
	C397.414,313.342,396.044,312.871,394.804,312.771z"/>
<path fill-rule="evenodd" clip-rule="evenodd" fill="#fff" d="M322.584,301.201L322.584,301.201c0.2-1.27,0.44-2.5,0.57-3.85
	c-4.38-0.3-8.271,0.04-12.141-0.34c-1.689-0.17-3.33-0.721-4.989-1.25c-1.761-0.561-3.21-1.021-4.19-2.15
	c-2.09-2.42-1.05-7.57-0.68-11c0.189-1.74,0.58-3.93,0-4.88c-0.55-0.89-1.79-0.661-2.271-0.45c-1,0.45-2.26,0.9-3.51,1.36
	c-2.03,0.739-4.09,1.31-6.81,1.02c-1.95-0.21-3.21-1.37-4.99-1.59c-3.53-0.431-5.44,1.7-5.67,4.2c-0.24,2.68,0.53,6.219,0.23,8.729
	c-0.47,3.931-4.04,4.87-8.16,5.101c-4.66,0.26-10.054-0.745-14.734-0.575c0.059,0.168,0.094,0.675,0.104,0.915
	c0.05,1.26,0.09,2.449,0.11,3.52c4.8,1.351,10.15,1.959,15.76,2.721c5.5,0.729,11.31,1.33,17.24,1.359
	c6.22,0.029,12.35,0.051,18.25-0.12C312.444,303.771,317.674,302.071,322.584,301.201z"/>
<path fill-rule="evenodd" clip-rule="evenodd" fill="#fff" d="M389.484,328.642L389.484,328.642
	c1.529-2.721,3.5-7.101,2.489-11.001c-0.39-1.499-1.369-3.369-2.04-4.869c-2.079-4.67-5.02-8.67-7.479-12.93
	c-3.42-5.91-6.3-11.771-9.87-17.351c0.1-0.84,0.39-1.49,0.45-2.38c-6.86-3.131-17.41-2.16-24.37-0.11c-7.32,2.15-13.41,5.9-17.35,11
	l-0.415,0.478l0.185-0.588c1.07-3.829,3.74-6.68,6.69-8.959c2.93-2.271,6.31-4.08,10.09-5.44c7.109-2.571,18.43-4.31,26.42-1.021
	c0.14-1.479,1.05-2.97,0.8-4.99c-0.21-1.62-1.479-3.71-2.27-5.561c-4.73-11.069-8.971-21.88-15.08-31.859
	c-0.431-0.7-0.96-1.561-1.48-2.38c-0.59-0.95-1.03-1.91-1.58-2.271c-1.2-0.77-4.12-1.04-5.899-1.25
	c-6.591-0.781-13.521,0.27-18.82,1.7c-7.64,2.07-13.7,5.17-18.37,9.87l-0.494,0.508l0.265-0.628
	c2.869-5.96,9.779-9.88,16.329-12.349c6.681-2.531,14.601-3.811,23.021-3.181c-1.28-1.51-4.13-2.14-6.58-2.83
	c-2.55-0.729-5.35-1.239-7.94-1.699c-1.21-1.9-1.779-3.921-2.6-6.131c-0.27-0.709-0.39-1.519-0.68-2.149
	c-0.431-0.92-1.181-1.44-1.36-2.5c-0.229-1.3,0.39-2.66,0-3.96c-0.22-0.74-0.99-1.181-1.71-1.931c-1.78-1.88-3.47-2.909-7.59-2.609
	c-2.26,0.16-4.46,0.86-6.69,1.59c-4,1.29-7.75,3.08-10.55,6.009c-1.41,1.471-2.89,3.601-2.49,5.78c0.2,1.07,1.431,2.19,2.271,3.17
	c1.729,2.06,2.64,3.771,3.96,6.47c0.62,1.24,1.51,2.521,1.37,3.74c-0.16,1.271-2.57,3.54-3.86,4.08c-1.31,0.55-2.89,0.76-4.649,0.57
	c-0.591-0.29-0.73-1-1.021-1.48c-0.91-1.5-1.79-2.95-3.06-4.42c-1.431-1.64-3.37-3.81-6.12-3.85c-1.53-0.03-3,0.55-4.08,1.13
	c-2.551,1.35-4.93,4.27-7.03,6.689c-0.62,0.71-1.71,2.17-2.27,2.271c-0.95,0.16-3.03-0.94-3.74-1.36c-1.2-0.71-2.22-1.41-2.73-2.27
	c0.85-5.311,3.29-8.3,5.45-12.25c0.68-1.25,1.52-2.601,1.92-3.96c0.97-3.311-0.58-6.101-2.38-7.71c-2.39-2.15-6.1-3.53-10.31-4.54
	c-4.12-0.99-9.21-0.95-12.59,0.91c-0.93,0.5-2.3,1.369-2.61,2.6c-0.29,1.17,0.01,3.4-0.34,4.88c-0.2,0.83-0.78,1.771-1.13,2.831
	c-0.9,2.709-1.19,7.24-3.52,8.28c-0.86,0.39-2.26,0.41-3.51,0.569c-3.59,0.471-7.86,0.21-9.98,2.15c8.7-0.48,16.35,1.36,22.45,4.08
	c6.07,2.71,11.66,6.39,14.4,12.36l0.348,0.821l-0.688-0.702c-3.29-3.649-7.91-6.779-13.27-8.96c-7.78-3.17-19.62-5.33-28.57-2.04
	c-4.33,6.19-8.03,13.16-11.9,20.86c-1.68,3.34-3.49,7.23-5.56,10.771c-0.93,1.6-2.02,3.34-3.06,5.109
	c-1.07,1.8-1.92,4.021-1.93,6.23c-0.01,1.43,0.4,2.709,0.79,3.97c0.37,1.18,0.65,2.39,1.48,3.18c13.47-2.71,26.88,0.931,34.69,6.8
	c2.77,2.08,5.28,4.601,6.47,7.94l0.25,0.654l-0.48-0.544c-4.07-4.58-10.12-7.91-17.35-9.75c-6.9-1.761-16.87-2.441-23.92,0
	c-3.26,6.72-6.81,12.389-10.89,18.479c-2.85,4.26-5.79,8.641-7.59,14.509c-0.58,1.9-1.18,4.302-0.8,6.471
	c0.22,1.24,1.34,2.98,2.16,4.421c2.42,4.28,5.56,7.66,9.29,10.319c5.22,3.711,11.15,6.73,17.47,8.61c10.02,3,25.08,3.92,32.76-1.7
	c1.24-0.899,2.31-1.88,3.41-3.17c0.93-1.109,2.2-2.58,2.6-3.859c0.46-1.431,0.24-3.46,0.12-5.33c-0.85-12.431-2.47-24.2-2.38-36.96
	c4.02,0.149,7.83,0.3,11.9,0.109c3.59-0.16,8.86-0.029,10.09-2.38c0.9-1.7,0.61-4.3,0.46-6.57c-0.15-2.189-0.55-5.02,0.11-6.81
	c0.63-1.69,3.29-3.479,5.67-3.401c1.54,0.052,3.11,0.981,4.761,1.481c2.629,0.78,5.06,1.439,7.6,0.68c2.27-0.68,4.569-2.38,6.8-2.27
	c0.89,0.04,2.79,0.71,3.52,1.25c4.21,3.12-1.68,12.89,2.04,16.78c1.96,2.049,6.42,1.729,10.54,1.919
	c3.971,0.19,7.57-0.19,11.34,0.12c-0.819,8.65-2.01,17.19-3.06,25.851c-0.54,4.42-1.4,9.22-0.57,13.27
	c0.78,3.811,2.66,6.75,5.561,8.841c2.17,1.569,5.56,2.739,8.5,3.63c3.31,0.989,6.81,1.529,10.43,1.699
	c7.46,0.351,14.53-1.301,20.3-3.63c5.801-2.34,10.49-5.31,14.971-9.18C385.834,333.352,387.954,331.361,389.484,328.642z"/>
<g>
	<path fill-rule="evenodd" clip-rule="evenodd" fill="#17affa" d="M393.104,216.621c21.17,0,42.34,0,63.5,0
		c-0.12,12.031-1.73,22.8-3.86,32.99c-2.13,10.25-4.18,20.15-6.8,30.05c-23.71-1.42-38.141-12.13-58.73-16.67
		c0.58-3.439,1.95-6.83,2.49-10.43c0.28-1.879,0.49-3.75,0.8-5.67c0.28-1.78,0.71-3.59,1.021-5.44c0.62-3.79,0.649-7.87,0.899-12.02
		c0.25-4.08,0.58-8.271,0.57-12.471C392.984,216.801,392.974,216.641,393.104,216.621z"/>
	<path fill-rule="evenodd" clip-rule="evenodd" fill="#17affa" d="M388.234,81.691c14.029,9.98,26.04,21.95,36.06,35.94
		c-17.12,12.64-34.53,24.97-51.71,37.53c-6.27-8.49-14.05-15.44-22.68-21.54c-8.63-6.11-18.13-11.42-28.681-15.53
		c6.24-20.45,12.58-40.79,19.271-60.78C358.464,63.191,374.264,71.751,388.234,81.691z"/>
	<path fill-rule="evenodd" clip-rule="evenodd" fill="#17affa" d="M382.904,319.352c0.46,1.26,0.649,2.59,0.34,4.3
		c-0.86,4.7-4.28,8.15-7.82,10.78c-3.31,2.439-8.229,4.949-12.359,6.229c-4.9,1.521-10.92,2.271-16.44,1.7
		c-5.34-0.55-10.25-2.18-12.7-5.78c-1.1-1.609-1.79-4.25-1.25-6.8c0.66-3.141,2.59-5.54,4.76-7.6c6.101-5.78,16.03-10.44,26.53-11
		c6.87-0.36,11.94,0.97,15.65,3.97c-0.15,5.06-2.561,8.8-5.44,11.68c-5.38,5.38-13.89,9.931-24.83,9.07
		c-4.96-0.39-9.17-2.36-12.14-4.88c3.68,7.67,15.24,10.47,26.08,7.6c4.52-1.189,8.47-3.189,11.91-6.12
		c3.88-3.319,6.87-6.96,7.37-13.04l0.048-0.689L382.904,319.352z"/>
	<path fill-rule="evenodd" clip-rule="evenodd" fill="#17affa" d="M313.854,258.341c0.699,1.859,1.3,3.44-0.57,4.43
		c-2.65-1.13-5.17-2.391-7.48-3.86c-1.5-5.46-3.08-10.83-4.54-16.33c2.49,0.07,3.5-1.34,5.9-1.359c0.61,0.529,0.91,1.359,1.25,2.159
		c0.98,2.351,1.64,4.921,2.6,7.591C311.864,253.321,312.874,255.741,313.854,258.341z"/>
	<path fill-rule="evenodd" clip-rule="evenodd" fill="#17affa" d="M278.924,241.561c0.56,4.621-0.09,10.46,0.46,15.08
		c-1.99,2.729-5.92,3.3-8.96,4.989c-0.99,0.551-2,1.461-3.29,1.021c-1.75-1.54-0.29-3.8,0.46-5.33c2.37-4.88,4.08-10.54,6.23-15.53
		C275.394,241.601,277.394,240.731,278.924,241.561z"/>
	<path fill-rule="evenodd" clip-rule="evenodd" fill="#17affa" d="M256.134,118.201c-2.67,1.2-5.43,1.97-8.05,3.06
		c-16.54,6.87-30.76,17.37-40.93,30.84c-0.39,0.51-0.73,1.06-1.13,1.59c-0.38,0.5-0.94,0.95-1.14,1.59
		c-17.71-12.98-35.31-26.07-52.95-39.12c10.17-13.2,22.54-24.77,36.63-34.47c10.49-7.22,22.02-13.48,34.47-18.94
		c4.18-1.831,8.82-3.7,13.03-4.99C242.884,77.781,249.554,97.951,256.134,118.201z"/>
	<path fill-rule="evenodd" clip-rule="evenodd" fill="#17affa" d="M246.164,328.762c0.26,1.05,0.57,2.54,0.34,3.17
		c-0.24,0.648-1.82,1.069-2.95,1.47c-3.26,1.169-7.26,1.83-11.57,1.71c-5.41-0.15-10.58-1.61-14.4-3.29
		c-3.93-1.729-7.65-4.31-10.32-7.37c-2.69-3.1-5.12-7.25-4.19-12.93c2.45-0.83,5.43-1.441,8.5-1.591
		c9.28-0.43,16.31,2.521,22.68,5.791C239.244,318.281,244.564,322.302,246.164,328.762z"/>
	<path fill-rule="evenodd" clip-rule="evenodd" fill="#17affa" d="M245.765,334.527l-0.171,0.354c-1.26,2.83-4.02,4.33-7.6,5.221
		c-2.67,0.66-5.41,1.27-8.39,1.13c-4.07-0.191-8.57-1.15-12.24-2.04c-1.32-0.32-2.67-0.53-3.75-0.91c-1.71-0.6-4.12-1.979-5.78-2.95
		c-1.83-1.069-3.52-2.229-5.1-3.51c-3.01-2.43-6.53-6.16-6.69-10.66c-0.14-3.79,2.08-5.89,4.31-8.05l0.42-0.381l-0.19,0.491
		c-0.51,1.27-0.959,2.47-1.03,4.31c-0.17,5.1,2.83,9.39,5.79,12.13c5.74,5.34,14.97,9.82,26.42,9.3
		c5.21-0.239,10.06-1.869,13.6-4.189L245.765,334.527z"/>
	<path fill-rule="evenodd" clip-rule="evenodd" fill="#17affa" d="M186.634,241c1.28,7.46,3.75,14.03,6.12,20.4
		c-10.69,2.24-19.73,6.01-29.14,9.871c-9.33,3.83-20.4,5.2-33.22,5.779c-2.73-9.05-4.65-18.59-6.35-28.57
		c-1.69-9.95-3.28-20.4-3.29-31.75c-0.28-0.01-0.02-0.37,0.11-0.34c21.32,0.08,42.89-0.16,63.61,0.229
		C184.214,225.602,185.354,233.591,186.634,241z"/>
</g>
<path fill-rule="evenodd" clip-rule="evenodd" fill="#fff" d="M41.207,480.191v-8.74c5.223,1.939,11.128,2.909,17.706,2.909
	c7.995,0,11.986-2.661,11.986-8.007c0-3.893-2.45-5.831-7.361-5.831h-8.156c-10.667,0-15.989-4.85-15.989-14.572
	c0-10.681,7.584-16.026,22.766-16.026c5.831,0,11.352,0.857,16.573,2.549v8.74c-5.222-1.939-10.742-2.909-16.573-2.909
	c-8.741,0-13.117,2.549-13.117,7.646c0,3.892,2.113,5.831,6.341,5.831h8.156c11.339,0,17.009,4.861,17.009,14.572
	c0,10.929-7.211,16.387-21.634,16.387C52.335,482.74,46.43,481.895,41.207,480.191L41.207,480.191z M103.971,444.135
	c11.612,0,17.419,5.918,17.419,17.768c0,1.579-0.112,3.157-0.335,4.736H95.666c0,5.396,3.954,8.095,11.874,8.095
	c3.867,0,7.721-0.373,11.588-1.095v7.646c-3.382,0.734-7.485,1.095-12.309,1.095c-13.875,0-20.801-6.516-20.801-19.558
	C86.017,450.363,91.997,444.135,103.971,444.135L103.971,444.135z M95.666,459.938h16.325v-0.286c0-5.297-2.673-7.945-8.02-7.945
	C98.873,451.706,96.101,454.454,95.666,459.938L95.666,459.938z M126.811,470.469c0-7.597,5.533-11.401,16.611-11.401
	c2.599,0,5.197,0.248,7.796,0.733v-2.885c0-3.419-2.475-5.135-7.398-5.135c-4.178,0-8.815,0.609-13.913,1.815v-7.646
	c5.098-1.206,9.735-1.815,13.913-1.815c11.364,0,17.046,4.202,17.046,12.595v25.65h-5.607l-3.432-3.419
	c-3.32,2.275-6.988,3.419-10.991,3.419C131.485,482.38,126.811,478.413,126.811,470.469L126.811,470.469z M151.217,466.354
	c-2.437-0.485-5.036-0.734-7.796-0.734c-4.637,0-6.962,1.579-6.962,4.737c0,3.407,1.939,5.098,5.831,5.098
	c3.208,0,6.179-0.994,8.927-2.983V466.354L151.217,466.354z M187.274,459.428v7.659h-18.215v-7.659H187.274L187.274,459.428z
	 M192.197,430.284h9.798l5.57,37.412l13.552-37.412h9.288l12.669,35.957l5.906-35.957h9.511l-9.797,52.096h-9.188l-14.311-40.868
	l-15.368,40.868h-9.076L192.197,430.284L192.197,430.284z M262.496,470.469c0-7.597,5.533-11.401,16.611-11.401
	c2.598,0,5.197,0.248,7.796,0.733v-2.885c0-3.419-2.475-5.135-7.398-5.135c-4.178,0-8.815,0.609-13.913,1.815v-7.646
	c5.098-1.206,9.735-1.815,13.913-1.815c11.364,0,17.046,4.202,17.046,12.595v25.65h-5.607l-3.432-3.419
	c-3.32,2.275-6.988,3.419-10.991,3.419C267.17,482.38,262.496,478.413,262.496,470.469L262.496,470.469z M286.902,466.354
	c-2.438-0.485-5.036-0.734-7.796-0.734c-4.638,0-6.963,1.579-6.963,4.737c0,3.407,1.94,5.098,5.832,5.098
	c3.208,0,6.179-0.994,8.927-2.983V466.354L286.902,466.354z M305.104,437.943h7.149l1.454,6.191h9.611v7.646h-8.555v17.593
	c0,3.568,1.542,5.359,4.626,5.359h3.929v7.646h-8.592c-6.415,0-9.623-3.432-9.623-10.308V437.943L305.104,437.943z M358.107,481.285
	c-3.158,0.734-6.44,1.095-9.835,1.095c-13.602,0-20.402-6.615-20.402-19.856c0-12.259,6.801-18.389,20.402-18.389
	c3.395,0,6.677,0.36,9.835,1.094v7.646c-3.158-0.733-6.191-1.094-9.113-1.094c-7.646,0-11.476,3.581-11.476,10.742
	c0,8.145,3.829,12.21,11.476,12.21c2.922,0,5.955-0.373,9.113-1.095V481.285L358.107,481.285z M364.474,482.38v-52.096h9.66v18.725
	c3.01-3.245,6.852-4.874,11.538-4.874c9.064,0,13.59,4.712,13.59,14.124v24.121h-9.648v-24.121c0-4.215-2.101-6.328-6.304-6.328
	c-3.133,0-6.191,1.243-9.176,3.755v26.694H364.474L364.474,482.38z M417.104,473.452v8.928h-9.647v-8.928H417.104L417.104,473.452z
	 M433.131,463.108c0,7.994,3.096,11.985,9.287,11.985c6.192,0,9.288-3.991,9.288-11.985c0-7.796-3.096-11.688-9.288-11.688
	C436.227,451.421,433.131,455.313,433.131,463.108L433.131,463.108z M423.482,463.257c0-12.818,6.315-19.234,18.936-19.234
	c12.632,0,18.948,6.416,18.948,19.234c0,12.794-6.316,19.197-18.948,19.197C429.836,482.454,423.532,476.051,423.482,463.257
	L423.482,463.257z M468.64,482.38v-38.245h7.473l1.206,4.874c3.345-3.245,6.888-4.874,10.631-4.874v7.796
	c-3.594,0-6.813,1.491-9.648,4.476v25.974H468.64L468.64,482.38z M517.889,452.801c-1.579-0.584-3.83-0.87-6.739-0.87
	c-6.677,0-10.021,3.68-10.021,11.028c0,7.124,2.885,10.68,8.642,10.68c2.76,0,5.471-0.658,8.119-1.964V452.801L517.889,452.801z
	 M527.536,479.47c0,11.166-6.714,16.748-20.142,16.748c-4.712,0-8.89-0.609-12.533-1.815v-7.646
	c3.718,1.206,7.92,1.815,12.607,1.815c6.95,0,10.42-2.909,10.42-8.74c-2.859,1.219-5.956,1.815-9.251,1.815
	c-11.363,0-17.046-6.204-17.046-18.613c0-12.595,6.614-18.898,19.844-18.898c4.451,0,9.822,0.522,16.101,1.566V479.47z"/>
</svg>
